<svg xmlns="http://www.w3.org/2000/svg" xmlns:xlink="http://www.w3.org/1999/xlink" width="22" height="22" viewBox="0 0 22 22">
    <defs>
        <path id="a" d="M13.914 12.833v5.5H2.783a.922.922 0 0 1-.928-.917V7.333H.928A.922.922 0 0 1 0 6.417V4.426c0-.486.195-.953.543-1.296L2.24 1.454c.348-.344.82-.537 1.312-.537h13.305c.492 0 .964.193 1.312.537l1.696 1.676c.348.343.543.81.543 1.296v1.99a.922.922 0 0 1-.927.917h-.928v3.824l-1.855-1.833v-1.99H3.71V16.5h2.783v-3.667c0-2.025 1.661-3.666 3.71-3.666 2.05 0 3.711 1.641 3.711 3.666zM1.855 5.5h16.697V4.426L16.856 2.75H3.55L1.855 4.426V5.5zm6.493 11h3.71v-3.667c0-1.012-.83-1.833-1.854-1.833-1.025 0-1.856.82-1.856 1.833V16.5zm11.105.916l1.061 2.381a.912.912 0 0 1-.475 1.208.932.932 0 0 1-1.223-.47l-1.1-2.467-1.625 1.751a.187.187 0 0 1-.262.011.182.182 0 0 1-.06-.135v-8.253a.187.187 0 1 1 .317-.13l5.86 5.792a.182.182 0 0 1 0 .259.187.187 0 0 1-.132.053h-2.361z"/>
    </defs>
    <g fill="none" fill-rule="nonzero">
        <path d="M0 0h22v22H0z"/>
        <use fill="#FFF" xlink:href="#a"/>
    </g>
</svg>
