<svg xmlns="http://www.w3.org/2000/svg" xmlns:xlink="http://www.w3.org/1999/xlink" width="22" height="20" viewBox="0 0 22 20">
    <defs>
        <path id="a" d="M17.417 1.76h3.208c.76 0 1.375.591 1.375 1.32v14.96c0 .729-.616 1.32-1.375 1.32H1.375C.615 19.36 0 18.769 0 18.04V3.08c0-.729.616-1.32 1.375-1.32h3.208V0h1.834v1.76h9.166V0h1.834v1.76zM1.833 3.52V17.6h18.334V3.52H1.833zm2.75 6.16h1.834v1.76H4.583V9.68zm0 3.52h1.834v1.76H4.583V13.2zM8.25 6.16h1.833v1.76H8.25V6.16zm0 3.52h1.833v1.76H8.25V9.68zm0 3.52h1.833v1.76H8.25V13.2zm3.667-7.04h1.833v1.76h-1.833V6.16zm0 3.52h1.833v1.76h-1.833V9.68zm3.666-3.52h1.834v1.76h-1.834V6.16zm0 3.52h1.834v1.76h-1.834V9.68z"/>
    </defs>
    <g fill="none" fill-rule="nonzero">
        <path d="M0 .88h22V22H0z"/>
        <use fill="#FFF" xlink:href="#a"/>
    </g>
</svg>
