<svg height="24" viewBox="0 0 24 24" width="24" xmlns="http://www.w3.org/2000/svg"><g fill="none" fill-rule="evenodd"><path d="m0 0h24v24h-24z" fill-rule="nonzero"/><path d="m18.222 3.5h-12.444c-.988 0-1.778.771-1.778 1.714v12c0 .943.791 1.715 1.778 1.715h3.555l2.667 2.571 2.667-2.571h3.555c.978 0 1.778-.772 1.778-1.715v-12c0-.943-.8-1.714-1.778-1.714z" fill="#000"/><g fill-rule="nonzero"><path d="m9.332 9.085c.043-1.618 1.175-2.605 2.695-2.605s2.594 1.129 2.594 2.366-.452 1.56-1.428 2.447c-.976.888-1.216 1.741-1.216 2.406" stroke="#fff" stroke-linecap="round" stroke-width="2"/><rect fill="#fff" height="2" rx="1" width="2" x="11" y="15.8"/></g></g></svg>