<svg fill="none" height="40" viewBox="0 0 155 40" width="155" xmlns="http://www.w3.org/2000/svg"><path d="m5.762 32.833.81-.115c.74-.114.948-.48.948-1.302v-9.976c0-.754-.324-1.097-1.087-1.142l-.67-.023v-.595l3.7-.114v5.296c.926-1.554 2.152-2.353 3.54-2.353 2.614 0 3.377 1.439 3.377 4.545v4.363c0 .799.162 1.187.856 1.301l.81.115v.662h-3.771v-6.989c0-2.032-.486-3.06-1.874-3.06-.787 0-1.596.48-2.105 1.301-.625.983-.67 2.17-.67 3.7v2.97c0 .822.207 1.187.994 1.301l.925.114v.663h-5.783zm14.272-8.816a5.34 5.34 0 0 1 3.724-1.508 5.34 5.34 0 0 1 3.725 1.508c.556.539.999 1.182 1.3 1.892a5.726 5.726 0 0 1 0 4.484 5.786 5.786 0 0 1 -1.3 1.892 5.254 5.254 0 0 1 -1.708 1.133 5.309 5.309 0 0 1 -4.034 0 5.254 5.254 0 0 1 -1.707-1.133c-.557-.539-1-1.182-1.301-1.892a5.728 5.728 0 0 1 0-4.484 5.787 5.787 0 0 1 1.3-1.892zm3.724 9.136c2.036 0 2.985-1.645 2.985-5.002s-.972-5.002-2.985-5.002c-2.012 0-2.984 1.645-2.984 5.002s.949 5.002 2.984 5.002zm5.689-.32.81-.115c.74-.114.948-.48.948-1.302v-6.85c0-.755-.323-1.074-1.086-1.12l-.671-.023v-.616l3.7-.092v2.147c.926-1.576 2.13-2.353 3.68-2.353 1.387 0 2.474.868 2.821 2.376.833-1.553 2.129-2.376 3.517-2.376 2.452 0 3.238 1.485 3.238 4.546v4.362c0 .8.162 1.188.856 1.302l.81.114v.662h-3.748v-6.989c0-2.032-.508-3.037-1.827-3.037-.74 0-1.504.456-2.013 1.278-.624 1.006-.693 2.17-.693 3.7v2.97c0 .799.185 1.187.88 1.301l.786.114v.663h-3.634v-6.989c0-2.032-.508-3.037-1.827-3.037-.74 0-1.504.456-2.013 1.278-.624 1.006-.67 2.17-.67 3.7v2.97c0 .822.208 1.187.994 1.301l.925.114v.663h-5.783v-.662zm21.49-4.819c0 .183-.024.342-.024.525 0 2.787 1.25 4.34 3.308 4.34 1.203 0 2.244-.64 3.285-1.941l.532.388c-1.04 1.645-2.452 2.49-4.187 2.49-1.642 0-2.799-.503-3.909-1.736a5.852 5.852 0 0 1 -1.574-3.928 5.92 5.92 0 0 1 1.203-3.495c1.018-1.37 2.475-2.17 4.025-2.17 2.638 0 4.534 2.056 4.58 5.527h-7.24zm4.927-1.142c0-2.33-.972-3.654-2.406-3.654-1.527 0-2.406 1.347-2.567 4.042h4.974zm13.372 4.362c-1.041 1.759-2.452 2.58-4.442 2.58-1.642 0-2.891-.57-4.025-1.804a5.766 5.766 0 0 1 -1.434-3.745 5.582 5.582 0 0 1 1.319-3.563c1.203-1.462 2.73-2.216 4.51-2.216 2.29 0 3.748 1.211 3.748 2.627 0 .89-.578 1.485-1.434 1.485-.787 0-1.273-.457-1.273-1.165 0-.777.44-1.166 1.296-1.166h.231c-.44-.73-1.203-1.073-2.336-1.073-2.406 0-3.494 1.6-3.494 4.91 0 3.175 1.226 4.866 3.401 4.866 1.272 0 2.545-.731 3.377-2.102zm3.192-3.22c0 .183-.023.342-.023.525 0 2.787 1.249 4.34 3.308 4.34 1.203 0 2.244-.64 3.285-1.941l.532.388c-1.041 1.645-2.452 2.49-4.187 2.49-1.643 0-2.8-.503-3.91-1.736a5.852 5.852 0 0 1 -1.574-3.928 5.921 5.921 0 0 1 1.203-3.495c1.018-1.37 2.476-2.17 4.025-2.17 2.638 0 4.534 2.056 4.581 5.527zm4.927-1.142c0-2.33-.972-3.654-2.406-3.654-1.526 0-2.406 1.347-2.567 4.042h4.973zm2.59 5.961.81-.115c.74-.114.949-.48.949-1.302v-6.85c0-.755-.325-1.074-1.087-1.12l-.671-.023v-.616l3.701-.092v2.147c.925-1.554 2.151-2.353 3.54-2.353 2.614 0 3.377 1.44 3.377 4.546v4.362c0 .8.162 1.188.856 1.302l.81.114v.662h-3.748v-6.989c0-2.032-.508-3.037-1.897-3.037-.786 0-1.596.456-2.105 1.278-.624.983-.67 2.17-.67 3.7v2.97c0 .822.207 1.187.994 1.301l.926.114v.663h-5.785zm11.635-9.273v-.754c1.85-.251 2.776-1.485 3.03-3.654h.74v3.654h3.17v.754h-3.285v6.646c0 1.781.092 2.672 1.25 2.672 1.063 0 1.711-.96 1.711-2.764v-.183h.717c0 .16.023.296.023.457 0 2.284-1.04 3.426-3.03 3.426-1.041 0-1.781-.365-2.198-1.05-.44-.754-.486-1.462-.486-2.239v-6.965zm7.356 9.272.786-.114c.741-.114.949-.48.949-1.302v-6.828c0-.754-.324-1.097-1.087-1.142l-.647-.023v-.617l3.841-.091v2.65c.578-1.943 1.48-2.879 2.914-2.879 1.203 0 1.92.617 1.92 1.554 0 .731-.485 1.233-1.156 1.233s-1.134-.41-1.134-1.142c0-.48.347-.753.347-.822 0-.045-.069-.091-.185-.091-.347 0-1.156.343-1.781 1.554-.509.982-.925 2.604-.925 4.453v1.988c0 1.187.578 1.575 2.105 1.621v.663h-5.947zm10.824-4.818c0 .183-.023.342-.023.525 0 2.787 1.249 4.34 3.308 4.34 1.203 0 2.244-.64 3.285-1.941l.532.388c-1.041 1.645-2.452 2.49-4.187 2.49-1.643 0-2.8-.503-3.91-1.736a5.854 5.854 0 0 1 -1.574-3.928 5.927 5.927 0 0 1 1.203-3.495c1.018-1.37 2.476-2.17 4.025-2.17 2.638 0 4.534 2.056 4.581 5.527zm4.927-1.142c0-2.33-.971-3.654-2.406-3.654-1.526 0-2.406 1.347-2.567 4.042h4.973z" fill="#667278"/><path d="m145.677 18.254-10.037-10.036a.896.896 0 0 0 -.648-.272.91.91 0 0 0 -.649.272l-10.037 10.035 10.686 10.687zm-8.199 4.479c0-.116.113-.257.213-.343.267-.228.541-.167.775.131.076-.114.13-.27.24-.341.113-.074.279-.081.424-.09.309-.02.409-.143.343-.451-.201-.926-1.391-1.514-2.231-1.039-1.078.61-1.744 1.574-2.083 2.76-.045.157-.023.335-.024.504-.002.747 0 1.494 0 2.308.294-.451.618-.793 1.074-.975a1.597 1.597 0 0 1 1.383.081 1.043 1.043 0 0 0 -.95.333 1.44 1.44 0 0 0 -.408.928c-.027.583-.401.803-.919.533-.112-.058-.213-.137-.318-.206a3.87 3.87 0 0 1 -.434.25c-.452.19-.766-.03-.826-.515a2.199 2.199 0 0 0 -.254-.79c-.242-.427-.603-.574-1.086-.522.284-.233.904-.281 1.356-.1.46.185.791.52 1.09.922v-.198c0-.726-.006-1.453.003-2.178a2.065 2.065 0 0 0 -.205-.94c-.399-.824-.912-1.559-1.685-2.076a1.606 1.606 0 0 0 -2.359.665 1.262 1.262 0 0 0 -.1.3c-.049.272.055.393.333.402l.127.005c.344.019.458.117.522.45.321-.335.592-.37.862-.113.247.235.235.49-.059.811.405.027.755.15 1.024.445a1.315 1.315 0 0 1 .354 1.053c-.024-.003-.049 0-.059-.01-.485-.503-1.105-.667-1.774-.738a3.31 3.31 0 0 1 -.856-.212c-.698-.274-1.021-.905-.891-1.699.038-.235.108-.465.168-.716a2.192 2.192 0 0 1 -1.568.132c-.558-.166-.92-.539-1.128-1.114.635.583 1.285.588 1.913.04.402-.35.804-.22.926.3.009.039.015.08.028.152.162-.107.312-.196.451-.3a1.919 1.919 0 0 1 2.304-.057c.449.319.839.715 1.15 1.17l.152.213c.024-.634-1.043-2.847-1.741-3.609-.007.067-.01.118-.017.168-.046.376-.237.648-.6.77-.36.121-.701.047-.937-.25a1.958 1.958 0 0 1 -.337-.668c-.198-.682-.882-.943-1.507-.538.067.035.129.063.186.098a.636.636 0 0 1 -.581 1.129.615.615 0 0 1 -.353-.784 1.33 1.33 0 0 1 .546-.656c.705-.475 1.469-.619 2.295-.387a.944.944 0 0 0 .203.041 5.63 5.63 0 0 0 -1.831-1.008c-.739-.243-1.487-.337-2.24-.077-.704.244-1.222.688-1.444 1.425-.02.067-.034.136-.041.206-.022.184.074.262.247.254.155-.009.309-.034.463-.04.333-.016.497.09.612.403.063.172.11.35.163.524.186.608.392.77 1.022.797l.038.073c-.179.096-.35.223-.541.283-.932.293-1.884-.226-2.209-1.19-.415-1.226.267-2.533 1.556-2.983.77-.27 1.539-.21 2.306.013l.304.093c-.333-.446-.568-.892-.583-1.424-.015-.548.217-.978.62-1.334.007.016.018.03.014.038-.339.693-.079 1.455.622 1.821.044.023.09.041.133.065.463.25.486.705.051 1.006-.04.027-.082.05-.176.109 2.275 1.238 3.428 3.264 4.123 5.631v-3.185c0-.354-.423-.743-.777-.709-.289.028-.39.245-.461.485-.325-.187-.412-.673-.191-1.041.27-.449.787-.49 1.428-.083 0-.27.031-.523-.014-.76-.02-.102-.2-.173-.315-.264a.54.54 0 0 0 -.055.06c-.309.457-.783.614-1.246.412-.461-.2-.693-.693-.548-1.214a1.45 1.45 0 0 1 .249-.53c.547-.66.085-1.352-.432-1.616-.061-.031-.128-.053-.169-.07 0 .18.028.361-.006.53-.069.338-.369.544-.717.529a.699.699 0 0 1 -.66-.606.67.67 0 0 1 .447-.753c.301-.107.63-.114.936-.02 1.162.322 1.922 1.047 2.212 2.234l.022.104.018.079c.23-.041.296-.17.286-.398-.02-.463-.006-.928-.006-1.401-.067-.012-.12-.025-.175-.03-.533-.047-.878-.336-1.075-.825-.276-.683-.665-.813-1.276-.423a1.11 1.11 0 0 1 .113-.736.781.781 0 0 1 .509-.414.776.776 0 0 1 .644.124c.296.193.463.485.604.797.03.086.078.164.141.23a.223.223 0 0 0 .205.03.225.225 0 0 0 .061-.087c.012-.034.017-.07.012-.106a.838.838 0 0 0 -.138-.256c-.104-.159-.227-.307-.32-.472-.258-.458-.256-.923.048-1.355.229-.327.5-.625.771-.958.395.416.802.776.985 1.306.156.451.001.845-.246 1.215-.089.135-.201.256-.287.392-.069.11-.122.251.032.329.148.074.233-.04.296-.16.082-.179.173-.353.273-.523.296-.446.709-.622 1.088-.485.399.145.617.585.552 1.134a.412.412 0 0 1 -.07-.037c-.398-.328-.958-.213-1.129.27-.224.633-.612 1.018-1.326 1.022 0 .551-.009 1.086.011 1.62.003.079.15.152.25.246.052-.206.08-.372.137-.527.422-1.138 1.237-1.808 2.437-1.982.23-.024.463.008.679.091.354.128.496.521.362.878a.714.714 0 0 1 -.861.428.706.706 0 0 1 -.491-.825c.015-.066.036-.13.055-.2a1.05 1.05 0 0 0 -.704 1.597c.156.24.267.506.326.787a.94.94 0 0 1 -.616 1.06c-.437.164-.9.006-1.181-.406l-.058-.082a3.06 3.06 0 0 0 -.27.173.206.206 0 0 0 -.073.132c-.007.225-.003.45-.003.699.123-.074.249-.14.379-.2.315-.126.626-.125.893.111a.776.776 0 0 1 .244.845c-.042.145-.146.273-.24.44-.289-.659-.762-.71-1.166-.174a.915.915 0 0 0 -.108.244.31.31 0 0 0 -.002.105c0 1.057 0 2.114.016 3.18.679-2.369 1.829-4.396 4.101-5.631-.101-.069-.16-.105-.214-.146-.382-.295-.349-.713.066-.963.203-.11.391-.245.559-.403.445-.462.503-.935.224-1.505.593.383 1.034 1.445.082 2.694.366-.076.73-.181 1.101-.22 1.066-.112 2.008.155 2.694 1.03.671.856.607 2.116-.123 2.852-.525.528-1.15.655-1.845.407-.157-.056-.293-.174-.449-.27.046-.04.055-.057.064-.057.657.038.846-.314.986-.73.064-.194.111-.393.18-.585.113-.311.283-.42.612-.405.126.006.252.022.378.034.292.03.382-.063.318-.35a1.884 1.884 0 0 0 -.569-.994 2.54 2.54 0 0 0 -1.794-.683c-1.22.006-2.252.518-3.199 1.245a2.797 2.797 0 0 1 1.601-.08c.438.111.84.294 1.157.623.124.125.223.27.295.431a.603.603 0 0 1 -.342.801.636.636 0 0 1 -.562-1.138c.048-.028.1-.05.151-.075-.419-.398-1.252-.197-1.434.345-.047.14-.072.287-.124.425-.122.324-.324.58-.668.686a.886.886 0 0 1 -1.135-.743c-.008-.06-.01-.122-.018-.23-.879 1.096-1.42 2.309-1.749 3.628.13-.19.271-.373.422-.547.279-.287.557-.584.878-.819.719-.526 1.605-.49 2.316.045.134.1.279.188.438.294.024-.094.041-.166.062-.235.131-.421.487-.527.842-.267.19.154.401.281.626.377.5.178.959.102 1.309-.354-.108.956-1.29 1.39-2.659.984.052.21.116.416.153.627.176.99-.263 1.668-1.239 1.904a6.99 6.99 0 0 1 -.812.13 2.314 2.314 0 0 0 -1.394.64.836.836 0 0 1 -.082.067c-.003.003-.013-.003-.019-.004-.147-.72.373-1.31 1.291-1.5-.054-.166-.15-.335-.149-.505" fill="#c66784"/><path d="m145.644 23.927a3.01 3.01 0 1 0 2.355 4.883v-3.746a2.996 2.996 0 0 0 -2.355-1.137m-6.485 6.02a3.01 3.01 0 0 0 .75-5.925l-3.666 3.666a3.013 3.013 0 0 0 2.916 2.26m6.485-6.485a3.004 3.004 0 0 0 2.355-1.137v-1.75l-2.322-2.322-2.948 2.95a3.005 3.005 0 0 0 2.915 2.259m.001 6.949a3.011 3.011 0 0 0 -3.005 3.18l5.36.002v-2.045a2.997 2.997 0 0 0 -2.355-1.137zm-6.487 0a3.01 3.01 0 0 0 -3.005 3.18h6.01a3.012 3.012 0 0 0 -3.005-3.18m-5.732.094-3.084 3.085h5.339a3.01 3.01 0 0 0 -2.255-3.085" fill="#00a1b0"/><path d="m122 33.589h4.507l-4.507-4.506v4.507zm2.305-15.336-2.275 2.276 10.687 10.686 2.275-2.275zm7.392 13.982-9.697-9.697v4.504l6.548 6.548h1.793z" fill="#5f6eb3"/></svg>