<svg width="24" height="25" viewBox="0 0 24 25" fill="none" xmlns="http://www.w3.org/2000/svg">
<path d="M4 12.3L20 12.3001" stroke="#242428" stroke-width="1.3" stroke-linecap="round" stroke-linejoin="round"/>
<circle cx="12" cy="12.5" r="9" stroke="#242428" stroke-width="1.3" stroke-linecap="round" stroke-linejoin="round"/>
<path d="M12.0004 21.3182L11.5361 21.7732C11.6584 21.8979 11.8257 21.9682 12.0004 21.9682C12.1751 21.9682 12.3424 21.8979 12.4646 21.7732L12.0004 21.3182ZM12.0004 3.68188L12.4646 3.22695C12.3424 3.10219 12.1751 3.03188 12.0004 3.03188C11.8257 3.03188 11.6584 3.10219 11.5361 3.22695L12.0004 3.68188ZM14.9504 12.5001C14.9504 15.7563 13.6488 18.7073 11.5361 20.8633L12.4646 21.7732C14.8058 19.384 16.2504 16.1101 16.2504 12.5001H14.9504ZM11.5361 4.13682C13.6488 6.29282 14.9504 9.24379 14.9504 12.5001H16.2504C16.2504 8.89002 14.8058 5.61609 12.4646 3.22695L11.5361 4.13682ZM9.05039 12.5001C9.05039 9.24379 10.3519 6.29282 12.4646 4.13682L11.5361 3.22695C9.19497 5.61609 7.75039 8.89002 7.75039 12.5001H9.05039ZM12.4646 20.8633C10.3519 18.7073 9.05039 15.7563 9.05039 12.5001H7.75039C7.75039 16.1101 9.19497 19.384 11.5361 21.7732L12.4646 20.8633Z" fill="#242428"/>
</svg>
