<svg xmlns="http://www.w3.org/2000/svg" xmlns:xlink="http://www.w3.org/1999/xlink" width="22" height="18" viewBox="0 0 22 18">
    <defs>
        <path id="a" d="M13.906 17.417H8.094a2.751 2.751 0 0 1-5.188 0H1.462A1.463 1.463 0 0 1 0 15.954V4.212C0 3.405.655 2.75 1.462 2.75h10.825c.808 0 1.463.655 1.463 1.462V5.5h2.753a1.95 1.95 0 0 1 1.498.702l3.547 4.256c.292.35.452.792.452 1.248v4.248c0 .808-.655 1.463-1.462 1.463h-1.444a2.751 2.751 0 0 1-5.188 0zm0-1.834a2.751 2.751 0 0 1 5.188 0h1.073v-3.941l-3.575-4.309h-4.675v-2.75H1.833v11h1.073a2.751 2.751 0 0 1 5.188 0h5.812zm-1.99-8.25h1.834v8.25h-1.833v-8.25zM5.5 17.417a.917.917 0 1 0 0-1.834.917.917 0 0 0 0 1.834zm11 0a.917.917 0 1 0 0-1.834.917.917 0 0 0 0 1.834z"/>
    </defs>
    <g fill="none" fill-rule="nonzero" transform="translate(0 -2)">
        <path d="M0 0h22v22H0z"/>
        <use fill="#FFF" xlink:href="#a"/>
    </g>
</svg>
